/* XPM */
static char * arbre_xpm[] = {
"30 45 10 1",
" 	c #41B48B",
".	c #73CDA4",
"+	c #395A10",
"@	c #8BDEBD",
"#	c #BDFF8B",
"$	c #399431",
"%	c #83D562",
"&	c #18A46A",
"*	c #413931",
"=	c #736262",
" ... .........++.......@...@..",
".............+##+.............",
"...........@.$##$.............",
"........@..@+%##%+............",
".........@$$$###%$$$..........",
"........$$##%###%%##$$........",
"........$%%#%###%%%%%$........",
"........$##%####%#%%#$........",
".....$$%#%%#########%#%$$.....",
".....$%$$%#########%#$$%$.....",
"....+##$%#########%#%%$##+....",
".....$$%##%########%##%$$.....",
"...+%##$#$########%#$#$##%+...",
"...+##$%$####$##$#%##$%$##+...",
".. .$%##$#%%#%##%##%$%%#%$....",
".. +###%%$$$%#####%$$%%###+.@.",
" +++##%$%##%$#%%#$$%%%$%##+++.",
".+%%+%+####%%$$$$%%%#%#+%+%%+.",
"..$%+$#####%#$%%$%%#%#%#$+%$..",
".+%$$+#$##%######%#%#%##+$$%+.",
".$$$%$$##$###%##%#%#$##$$%$$$.",
".+$%%%$$$$##########$$$$%%%$+.",
"++%%%$%%%$$#$####$#$$%%%$%%%++",
"$%$%$%%%%$$+%#%%#%+$$%%%%$%$%$",
"+$+$$%%$%%$$$%%%%$$$%%$%%$$+$+",
"+$++$%$%%%%$%$$$$%$%%%%$%$++$+",
".+%$+$%%%%$%%$%%$%%$%%%%$+$%+.",
"+%$$++++%$$%%$%%$%%$$%++++$$%+",
"+$$$$$$++$%%$%$$%$%%$++$$$$$$+",
"+$$+$$$+++%%$%%%%$%%+++$$$+$$+",
".++$$+$$$+++++%%+++++$$$+$$++.",
"..+$+$$$$$$$++++++$$$$$$$+$+ .",
"..+++$$$$+$$$$$$$$$$+$$$$+++..",
"..&$+$$$+$$$+$$$$+$$$+$$$+$&..",
".&$$$++$+$$++$$$$++$$+$++$$$&.",
"&$$$$+++++$+++$$+++$+++++$$$$&",
"&$$$+++++++*++$$++*+++++++$$$&",
"&$$$+++++++*==++==*+++++++$$$&",
"&$$$+++++++*======*+++++++$$$&",
"&$$$$+++++++*====*+++++++$$$$&",
" &$$$$+++++++****+++++++$$$$& ",
". &$$$$$++++++++++++++$$$$$& .",
".. &&$$$$$++++++++++$$$$$&& ..",
".... &&&$$$$$$$$$$$$$$&&& ....",
"......  &&&$$$$$$$$&&&  ......"};
