/* XPM */
static char * sol_xpm[] = {
"29 30 3 1",
" 	c #73CDA4",
".	c #8BDEBD",
"+	c #A4E6C5",
"    ....    ....    ....    .",
".............................",
".............................",
".....+++.....+++.....+++.....",
"+++++++++++++++++++++++++++++",
"+++++++++++++++++++++++++++++",
"+++++++++++++++++++++++++++++",
"+++++++++++++++++++++++++++++",
"+++++++++++++++++++++++++++++",
"+++..++++++++++++++..++++++++",
"+++..++..++++++++++..++..++++",
"+++++++..++++++.+++++++..++++",
"+.++++++++++.++++.++++++++++.",
"++++++++++.+++++++++++++++.++",
"+++++++++++++++++++++++++++++",
"+++++++++++++++++++++++++++++",
"+++++++++++++++++++++++++++++",
"+++++++++++..++++++++++++++..",
".++++++++++..++..++++++++++..",
".++++++.+++++++..++++++.+++++",
"++++.++++.++++++++++.++++.+++",
"++.+++++++++++++++.++++++++++",
"+++++++++++++++++++++++++++++",
"+++++++++++++++++++++++++++++",
"+++++++++++++++++++++++++++++",
"+++++++++++++++++++++++++++++",
".....+++.....+++.....+++.....",
".............................",
".............................",
"    ....    ....    ....    ."};
