/* XPM */
static char * esc_xpm[] = {
"32 32 5 1",
" 	c #4A94DE",
".	c #4A7BDE",
"+	c #529CE6",
"@	c #6AA4E6",
"#	c #8BA4FF",
"   ..++++++        ..++++++     ",
"   ...++++++       ...++++++    ",
"   .....+@@+++     .....+@@+++  ",
"    .....++@+++     .....++@+++ ",
"    .......@@++     .......@@++ ",
"     ......+#@++     ......+#@++",
"+      ....+##+++      ....+##++",
"++       ...@#@+++       ...@#@+",
"+++       ..+##@+++       ..+##@",
"@+++       ..+##@+++       ..+##",
"##@+++     ...++##@+++     ...++",
"++@@+++     ....++@@+++     ....",
"...@+++     .......@+++     ....",
"...+@+++     ......+@+++     ...",
"....@++++     ......@++++     ..",
"....++++++      ....++++++      ",
"   ..++++++        ..++++++     ",
"   ...++++++       ...++++++    ",
"   .....+@@+++     .....+@@+++  ",
"    .....++@+++     .....++@+++ ",
"    .......@@++     .......@@++ ",
"     ......+#@++     ......+#@++",
"+      ....+##+++      ....+##++",
"++       ...@#@+++       ...@#@+",
"+++       ..+##@+++       ..+##@",
"@+++       ..+##@+++       ..+##",
"##@+++     ...++##@+++     ...++",
"++@@+++     ....++@@+++     ....",
"...@+++     .......@+++     ....",
"...+@+++     ......+@+++     ...",
"....@++++     ......@++++     ..",
"....++++++      ....++++++      "};
