/* XPM */
static char * esc_xpm[] = {
"64 64 558 2",
"  	c #6FBF9F",
". 	c #70C1A0",
"+ 	c #6EBF9E",
"@ 	c #6A928B",
"# 	c #677E83",
"$ 	c #677F83",
"% 	c #688586",
"& 	c #6CAF97",
"* 	c #70C4A2",
"= 	c #70BE9F",
"- 	c #6FC2A1",
"; 	c #70B89C",
"> 	c #656778",
", 	c #5F3E66",
"' 	c #5F3965",
") 	c #603965",
"! 	c #5F3B65",
"~ 	c #604C6C",
"{ 	c #6D9C8F",
"] 	c #70C5A2",
"^ 	c #6FC2A0",
"/ 	c #65737E",
"( 	c #5F3864",
"_ 	c #604469",
": 	c #5C3F65",
"< 	c #5A3C63",
"[ 	c #5B3D64",
"} 	c #5F4368",
"| 	c #5F3D66",
"1 	c #604B6C",
"2 	c #6CAE97",
"3 	c #6EB199",
"4 	c #61466A",
"5 	c #5F4268",
"6 	c #61486D",
"7 	c #88899D",
"8 	c #B0BAC1",
"9 	c #AFB8C0",
"0 	c #B0B8C0",
"a 	c #AFB7BF",
"b 	c #B2BAC2",
"c 	c #9EA6B2",
"d 	c #6C5C7D",
"e 	c #5E4268",
"f 	c #688084",
"g 	c #6DAE98",
"h 	c #604068",
"i 	c #5A3B62",
"j 	c #776A86",
"k 	c #CAE4E1",
"l 	c #D1E8E4",
"m 	c #D0E8E4",
"n 	c #D1E9E4",
"o 	c #D3EDE7",
"p 	c #9CA6B2",
"q 	c #667981",
"r 	c #614169",
"s 	c #573760",
"t 	c #857991",
"u 	c #D5EFE9",
"v 	c #C7DBDA",
"w 	c #CADEDD",
"x 	c #C8DCDB",
"y 	c #D0E7E3",
"z 	c #B2BDC3",
"A 	c #593B62",
"B 	c #603A65",
"C 	c #677A81",
"D 	c #56375F",
"E 	c #8A7C93",
"F 	c #F0FDF8",
"G 	c #E6F5ED",
"H 	c #E8F7EF",
"I 	c #E6F5EE",
"J 	c #EFFDF6",
"K 	c #C3C9CD",
"L 	c #573961",
"M 	c #603A66",
"N 	c #55365F",
"O 	c #8E8096",
"P 	c #F7FFFD",
"Q 	c #E8F6EE",
"R 	c #EBFAF1",
"S 	c #EAF8EF",
"T 	c #F3FFF8",
"U 	c #CBD0D2",
"V 	c #F6FEFC",
"W 	c #EAF9F0",
"X 	c #E9F7EF",
"Y 	c #F2FEF8",
"Z 	c #CBCFD1",
"` 	c #F7FFFC",
" .	c #ECFBF1",
"..	c #ECFAF1",
"+.	c #F2FFF8",
"@.	c #CBD0D1",
"#.	c #E7F6EE",
"$.	c #D1E5E1",
"%.	c #D2E6E2",
"&.	c #D3E6E2",
"*.	c #D0E4E1",
"=.	c #DCEEE8",
"-.	c #EDFBF2",
";.	c #E5F5ED",
">.	c #C7DDDC",
",.	c #C9DEDD",
"'.	c #C9DEDC",
").	c #C9DFDD",
"!.	c #C6DCDB",
"~.	c #D7EAE5",
"{.	c #EEFCF2",
"].	c #E8F7EE",
"^.	c #E6F6EE",
"/.	c #CADFDD",
"(.	c #CBE0DE",
"_.	c #CAE0DE",
":.	c #C8DEDE",
"<.	c #C7DEDE",
"[.	c #CADFDE",
"}.	c #CCE0DE",
"|.	c #C8DEDC",
"1.	c #D8EBE6",
"2.	c #EDFCF2",
"3.	c #6DAD97",
"4.	c #CBE0DD",
"5.	c #C9DFDE",
"6.	c #D6E5DB",
"7.	c #D9E8DB",
"8.	c #D8E7DB",
"9.	c #CFE2DD",
"0.	c #C8DDDC",
"a.	c #667980",
"b.	c #72B19B",
"c.	c #604168",
"d.	c #D2E4DC",
"e.	c #C2DADD",
"f.	c #7AB5ED",
"g.	c #61A5F0",
"h.	c #63A3F1",
"i.	c #63A3F0",
"j.	c #62A3F0",
"k.	c #68ACF0",
"l.	c #A6CBE4",
"m.	c #D3E4DA",
"n.	c #CDE1DE",
"o.	c #6DB19A",
"p.	c #614168",
"q.	c #CFE2D9",
"r.	c #7EB5EA",
"s.	c #2C83FA",
"t.	c #1176FF",
"u.	c #0970FF",
"v.	c #0B73FF",
"w.	c #1C7BFC",
"x.	c #559CF4",
"y.	c #BBD8E0",
"z.	c #D2E3DC",
"A.	c #5F3A65",
"B.	c #6A7C83",
"C.	c #68AB95",
"D.	c #63426A",
"E.	c #55355E",
"F.	c #D0E2DA",
"G.	c #63ABED",
"H.	c #0A73FF",
"I.	c #1475FF",
"J.	c #1576FE",
"K.	c #1275FF",
"L.	c #1175FF",
"M.	c #1375FF",
"N.	c #1576FF",
"O.	c #1577FE",
"P.	c #0C72FF",
"Q.	c #2B8BF8",
"R.	c #B4D5DD",
"S.	c #CFE1DD",
"T.	c #6B7D84",
"U.	c #69AD97",
"V.	c #634269",
"W.	c #55355F",
"X.	c #D6E6DB",
"Y.	c #8BBBE9",
"Z.	c #0D74FF",
"`.	c #1978FE",
" +	c #2384FD",
".+	c #66A9F8",
"++	c #94C0EF",
"@+	c #A5CAE3",
"#+	c #A3C9E5",
"$+	c #A4CAE4",
"%+	c #9FC7E8",
"&+	c #7FB5F7",
"*+	c #3B93FA",
"=+	c #1577FF",
"-+	c #0B72FF",
";+	c #4795F6",
">+	c #CEE1DC",
",+	c #71B29C",
"'+	c #C8DEDD",
")+	c #3D8DF7",
"!+	c #1073FE",
"~+	c #1476FE",
"{+	c #4391FD",
"]+	c #B9D6E6",
"^+	c #D4E5DD",
"/+	c #D5E6DC",
"(+	c #D1E4DD",
"_+	c #CEE2DE",
":+	c #78B0F6",
"<+	c #1677FF",
"[+	c #1878FE",
"}+	c #9CC4E4",
"|+	c #697B82",
"1+	c #70AF98",
"2+	c #604169",
"3+	c #C6DDDD",
"4+	c #D7E6DB",
"5+	c #95C4E8",
"6+	c #1178FF",
"7+	c #1877FE",
"8+	c #187EFE",
"9+	c #AED1E7",
"0+	c #D4E4DB",
"a+	c #C7DEDF",
"b+	c #C1DADF",
"c+	c #C1D9DF",
"d+	c #C0D9DF",
"e+	c #C5DCDF",
"f+	c #D6E5DD",
"g+	c #4A9CF7",
"h+	c #0F74FE",
"i+	c #1175FE",
"j+	c #4C9CF6",
"k+	c #C6DCDC",
"l+	c #6CAD97",
"m+	c #89BAE8",
"n+	c #0A71FE",
"o+	c #1274FE",
"p+	c #549DFD",
"q+	c #CAE0E0",
"r+	c #D2E4DB",
"s+	c #67A6F2",
"t+	c #1B7AFD",
"u+	c #237EFC",
"v+	c #217EFC",
"w+	c #217EFD",
"x+	c #227EFC",
"y+	c #1E7CFC",
"z+	c #3488FA",
"A+	c #B7D4E2",
"B+	c #D6E6DA",
"C+	c #93C1F3",
"D+	c #1879FE",
"E+	c #0F73FE",
"F+	c #3D8FF7",
"G+	c #D6E6DC",
"H+	c #C5DCDC",
"I+	c #C6DDDE",
"J+	c #D7E7DA",
"K+	c #84B7E5",
"L+	c #046DFF",
"M+	c #036CFF",
"N+	c #74AEF2",
"O+	c #D3E5DB",
"P+	c #3489F9",
"Q+	c #026CFF",
"R+	c #0E73FF",
"S+	c #0C71FF",
"T+	c #016BFF",
"U+	c #A7CBE4",
"V+	c #B3D2E3",
"W+	c #1778FF",
"X+	c #3A8CF8",
"Y+	c #D7E7DC",
"Z+	c #D1E3DC",
"`+	c #AECFE4",
" @	c #4291F7",
".@	c #3D8EF8",
"+@	c #A9CCE4",
"@@	c #7EB3EE",
"#@	c #368AF9",
"$@	c #3C8DF8",
"%@	c #3B8DF8",
"&@	c #378BF8",
"*@	c #5199F6",
"=@	c #BED8E1",
"-@	c #CEE2DD",
";@	c #C9DFDC",
">@	c #62A3F3",
",@	c #3087F9",
"'@	c #CDE1DD",
")@	c #D4E2D9",
"!@	c #CDDEDA",
"~@	c #CADCDB",
"{@	c #CBDDDB",
"]@	c #D1E0DA",
"^@	c #D3E2D9",
"/@	c #CCDDDA",
"(@	c #CBDCDB",
"_@	c #D2E1D9",
":@	c #D1E2DB",
"<@	c #C7E9E9",
"[@	c #C6EBEA",
"}@	c #C8EBEA",
"|@	c #C8ECEA",
"1@	c #C7EBEA",
"2@	c #C9E3E4",
"3@	c #CBE1E0",
"4@	c #CBDAD2",
"5@	c #D4A8A1",
"6@	c #D79B9B",
"7@	c #D69E9C",
"8@	c #D69D9C",
"9@	c #D69B9A",
"0@	c #CEC7BD",
"a@	c #CBE3E1",
"b@	c #C8DDDB",
"c@	c #CADCDA",
"d@	c #C9EBE9",
"e@	c #D3ACA7",
"f@	c #EA2A27",
"g@	c #E93031",
"h@	c #E92F2F",
"i@	c #EA2F2F",
"j@	c #E93131",
"k@	c #EB2727",
"l@	c #E06660",
"m@	c #C9EAE8",
"n@	c #C8DBDA",
"o@	c #D3ADA8",
"p@	c #EA2C29",
"q@	c #E93233",
"r@	c #E93333",
"s@	c #EB2929",
"t@	c #DF6862",
"u@	c #6DAE97",
"v@	c #CBDBD4",
"w@	c #D3ACA6",
"x@	c #D69F9F",
"y@	c #D5A2A0",
"z@	c #D5A1A0",
"A@	c #D6A09E",
"B@	c #CECAC0",
"C@	c #CBE2E1",
"D@	c #CBDFDD",
"E@	c #CAE1E0",
"F@	c #C9EAE9",
"G@	c #C8EDEB",
"H@	c #CAE4E4",
"I@	c #D8EAE6",
"J@	c #657980",
"K@	c #6EAE98",
"L@	c #C7DCDB",
"M@	c #C9DDDC",
"N@	c #C9DCDB",
"O@	c #C9DAD9",
"P@	c #C9DAD8",
"Q@	c #C9DBDA",
"R@	c #C6DADA",
"S@	c #D7E9E4",
"T@	c #71B09A",
"U@	c #E7F7EF",
"V@	c #D2EBE6",
"W@	c #D3EBE7",
"X@	c #D3EBE6",
"Y@	c #D3ECE7",
"Z@	c #D1EAE6",
"`@	c #DDF1EB",
" #	c #EDFCF1",
".#	c #677980",
"+#	c #72B29C",
"@#	c #E7F5ED",
"##	c #EEFCF3",
"$#	c #DFEBE6",
"%#	c #9A99A9",
"&#	c #9E9DAC",
"*#	c #9D9DAC",
"=#	c #9F9EAD",
"-#	c #9695A6",
";#	c #BEC4C9",
">#	c #F2FDF7",
",#	c #70B09A",
"'#	c #E7F4ED",
")#	c #F0FFF6",
"!#	c #D4DBDA",
"~#	c #502D58",
"{#	c #57365F",
"]#	c #56355F",
"^#	c #593961",
"/#	c #492452",
"(#	c #95889C",
"_#	c #F8FFFE",
":#	c #E6F3EC",
"<#	c #F0FEF6",
"[#	c #D6DEDC",
"}#	c #5C3E66",
"|#	c #63486C",
"1#	c #604369",
"2#	c #5D3E65",
"3#	c #5E3E66",
"4#	c #5E3E65",
"5#	c #5F4067",
"6#	c #654A6E",
"7#	c #56365F",
"8#	c #9C92A3",
"9#	c #F7FEFD",
"0#	c #D5DDDC",
"a#	c #5B3C64",
"b#	c #5E3F66",
"c#	c #6B5979",
"d#	c #84899C",
"e#	c #808297",
"f#	c #818398",
"g#	c #818297",
"h#	c #83869A",
"i#	c #7A758E",
"j#	c #604268",
"k#	c #54345E",
"l#	c #9A90A2",
"m#	c #5C3C64",
"n#	c #736884",
"o#	c #9CB8BE",
"p#	c #96ACB5",
"q#	c #97AEB7",
"r#	c #97ADB6",
"s#	c #9AB4BB",
"t#	c #8C97A6",
"u#	c #5F4066",
"v#	c #5D3C64",
"w#	c #726582",
"x#	c #97ADB7",
"y#	c #92A3AF",
"z#	c #93A5B0",
"A#	c #92A4AF",
"B#	c #95AAB4",
"C#	c #8890A1",
"D#	c #726682",
"E#	c #98AFB8",
"F#	c #92A4B0",
"G#	c #94A7B2",
"H#	c #93A5B1",
"I#	c #8891A2",
"J#	c #614269",
"K#	c #EFFEF5",
"L#	c #D5DDDB",
"M#	c #93A7B1",
"N#	c #F7FEFC",
"O#	c #F2FEF7",
"P#	c #CACFD1",
"Q#	c #8E8097",
"R#	c #F8FFFD",
"S#	c #E5F1EB",
"T#	c #D6DFDD",
"U#	c #97B0B8",
"V#	c #92A5B0",
"W#	c #92A6B0",
"X#	c #9B91A3",
"Y#	c #E4F0EA",
"Z#	c #CCD1D3",
"`#	c #563960",
" $	c #5C3E64",
".$	c #725E7E",
"+$	c #D4E1E0",
"@$	c #F6FFFB",
"#$	c #ECFFF5",
"$$	c #A3A2B1",
"%$	c #5C3E65",
"&$	c #5C3D64",
"*$	c #736683",
"=$	c #9BADB9",
"-$	c #95A3B1",
";$	c #96A5B3",
">$	c #96A4B2",
",$	c #99AAB6",
"'$	c #8B90A3",
")$	c #5E4066",
"!$	c #786885",
"~$	c #DAE9E6",
"{$	c #EAFCF3",
"]$	c #9A96A8",
"^$	c #5A3D64",
"/$	c #6EB79C",
"($	c #61526F",
"_$	c #604067",
":$	c #5D4268",
"<$	c #725F7E",
"[$	c #8F8297",
"}$	c #83748D",
"|$	c #624A6F",
"1$	c #5F4369",
"2$	c #5E3D66",
"3$	c #6C8489",
"4$	c #7EBEA9",
"5$	c #7BB6A4",
"6$	c #7CB7A5",
"7$	c #7BB6A5",
"8$	c #7DBAA7",
"9$	c #77AB9E",
"0$	c #604D6D",
"a$	c #5D4369",
"b$	c #766381",
"c$	c #80718B",
"d$	c #60486D",
"e$	c #5F4469",
"f$	c #698F8A",
"g$	c #6FC5A2",
"h$	c #69928B",
"i$	c #583961",
"j$	c #5E3A65",
"k$	c #645D74",
"l$	c #6DBB9C",
"m$	c #6DC29F",
"n$	c #6DC19E",
"o$	c #6CC19E",
"p$	c #6DC09E",
"q$	c #6DC6A1",
"r$	c #688987",
"s$	c #593A62",
"t$	c #5E3964",
"u$	c #656577",
"v$	c #6EBE9E",
"w$	c #71C3A1",
"x$	c #68928B",
"y$	c #61516F",
"z$	c #603F68",
"A$	c #614068",
"B$	c #636D7A",
"C$	c #6EB49A",
"D$	c #71C2A1",
"E$	c #6FBE9F",
"F$	c #71BFA0",
"G$	c #70BFA0",
"H$	c #70BF9F",
"I$	c #71C2A0",
"J$	c #678C88",
"K$	c #614E6D",
"L$	c #64727D",
"M$	c #6FB89C",
"N$	c #70C2A1",
"O$	c #6EB69B",
"P$	c #6DAC97",
"Q$	c #6FC09F",
"R$	c #6FC3A1",
"S$	c #73C2A2",
"T$	c #71C2A3",
"U$	c #6BBF9F",
"V$	c #6ABE9F",
"W$	c #71C2A2",
"X$	c #6FC0A0",
"Y$	c #70C0A0",
"Z$	c #6FBFA0",
"`$	c #71C0A0",
" %	c #74C3A3",
".%	c #6CBFA0",
"+%	c #6EC1A1",
"@%	c #70C09F",
"#%	c #6EAF98",
"$%	c #6FC1A0",
"  . . + @ @ # $ $ $ $ $ $ $ $ $ $ $ $ $ $ $ $ $ $ $ $ $ $ $ $ $ $ $ $ $ $ $ $ $ $ $ $ $ $ $ $ $ $ $ $ $ $ $ $ $ $ $ % % & * * = ",
"- ; ; > , , ' ' ' ' ' ' ' ' ' ' ' ' ' ' ' ' ' ' ' ' ' ' ' ' ' ' ' ' ' ' ' ' ' ' ' ' ' ' ' ' ' ' ' ' ' ' ' ' ' ' ) ' ! ! ~ { { ] ",
"- ; ; > , , ' ' ' ' ' ' ' ' ' ' ' ' ' ' ' ' ' ' ' ' ' ' ' ' ' ' ' ' ' ' ' ' ' ' ' ' ' ' ' ' ' ' ' ' ' ' ' ' ' ' ) ' ! ! ~ { { ] ",
"^ / / ( _ _ : < < < < < < < < < < < < < < < < < < < < < < < < < < < < < < < < < < < < < < < < < < < < < < < < < < [ } } | 1 1 2 ",
"3 4 4 5 6 6 7 8 9 9 9 0 0 0 0 0 0 0 0 0 0 0 0 0 0 0 0 0 0 0 0 0 0 0 0 0 0 0 0 0 0 0 0 0 0 0 0 0 0 0 0 0 0 0 a a b c d d e ! ! f ",
"3 4 4 5 6 6 7 8 9 9 9 0 0 0 0 0 0 0 0 0 0 0 0 0 0 0 0 0 0 0 0 0 0 0 0 0 0 0 0 0 0 0 0 0 0 0 0 0 0 0 0 0 0 0 a a b c d d e ! ! f ",
"g h h i j j k l m m n n n n n n n n n n n n n n n n n n n n n n n n n n n n n n n n n n n n n n n n n n n n n n m o p p < ' ' q ",
"g r r s t t u v w w w w w w w w w w w w w w w w w w w w w w w w w w w w w w w w w w w w w w w w w w w w w w w w x y z z A B B C ",
"g r r D E E F G H H H H H H H H H H H H H H H H H H H H H H H H H H H H H H H H H H H H H H H H H H H H H H H H I J K K L M M C ",
"g r r D E E F G H H H H H H H H H H H H H H H H H H H H H H H H H H H H H H H H H H H H H H H H H H H H H H H H I J K K L M M C ",
"g r r N O O P Q R R R R R R R R R R R R R R R R R R R R R R R R R R R R R R R R R R R R R R R R R R R R R R R R S T U U L M M C ",
"g r r N O O V Q W W W W W W W W W W W W W W W W W W W W W W W W W W W W W W W W W W W W W W W W W W W W W W W W X Y Z Z L M M C ",
"g r r N O O V Q W W W W W W W W W W W W W W W W W W W W W W W W W W W W W W W W W W W W W W W W W W W W W W W W X Y Z Z L M M C ",
"g r r N O O ` Q W W R  . . . . . . . . . . . . . . . . . . . . . . . . . . . . . . . . . . . . . . . . . ...W W X +.@.@.L M M C ",
"g r r N O O ` Q R R #.$.$.%.%.%.%.%.%.%.%.%.%.%.%.%.%.%.%.%.%.%.%.%.%.%.%.%.%.%.%.%.%.%.%.%.%.%.%.%.&.*.*.=.-.-.H +.@.@.L M M C ",
"g r r N O O ` #. . .;.>.>.,.'.'.'.'.'.'.'.'.'.'.'.'.'.'.'.'.'.'.'.'.'.'.'.'.'.'.'.'.'.'.'.'.'.'.'.'.).!.!.~.{.{.].+.@.@.L M M C ",
"g r r N O O ` #. . .;.>.>.,.'.'.'.'.'.'.'.'.'.'.'.'.'.'.'.'.'.'.'.'.'.'.'.'.'.'.'.'.'.'.'.'.'.'.'.'.).!.!.~.{.{.].+.@.@.L M M C ",
"g r r N O O ` #.....^././.(.(.(.(.(.(._._.:.<.<.<.<.<.<.<.<.<.<.<.<.<.<.<.<.<.<.<.<.:.[.[.(.(.(.(.(.}.|.|.1.2.2.H +.@.@.L M M C ",
"3.r r N O O ` #. . .^.,.,.(.[.4.4.[.5.}.}.6.7.7.7.7.7.7.7.7.7.7.7.7.7.7.7.7.7.7.7.7.8.9.9.5.[.4.4.[.(.0.0.1.2.2.H +.@.@.L M M a.",
"b.c.c.N O O ` #. . .^.,.,.(.4.[.[.[.d.e.e.f.g.g.h.i.i.i.i.i.i.i.i.i.i.i.i.i.i.i.j.j.k.l.l.m.n.5.5.4.(.0.0.1.2.2.H +.@.@.L M M C ",
"b.c.c.N O O ` #. . .^.,.,.(.4.[.[.[.d.e.e.f.g.g.h.i.i.i.i.i.i.i.i.i.i.i.i.i.i.i.j.j.k.l.l.m.n.5.5.4.(.0.0.1.2.2.H +.@.@.L M M C ",
"o.p.p.N O O ` #. . .^.,.,.(.[.}.}.q.r.s.s.t.u.u.u.u.u.u.u.u.u.u.u.u.u.u.u.u.u.u.u.u.v.w.w.x.y.z.z.5.(.0.0.1.2.2.H +.@.@.L A.A.B.",
"C.D.D.E.O O ` #. . .^.,.,.(.5.F.F.G.H.I.I.J.I.I.K.L.L.L.L.L.L.L.L.L.L.L.L.L.L.K.M.M.N.O.O.P.Q.R.R.S.[.0.0.1.2.2.H +.@.@.L A.A.T.",
"C.D.D.E.O O ` #. . .^.,.,.(.5.F.F.G.H.I.I.J.I.I.K.L.L.L.L.L.L.L.L.L.L.L.L.L.L.K.M.M.N.O.O.P.Q.R.R.S.[.0.0.1.2.2.H +.@.@.L A.A.T.",
"U.V.V.W.O O ` #. . .^.).).:.X.Y.Y.Z.`.I.I. +.+.+++@+#+#+#+#+#+#+#+#+#+#+#+#+$+%+&+&+*+=+=+`.-+;+;+>+(.>.>.1.2.2.H +.@.@.L A.A.T.",
",+h h N O O ` #. . .^.,.,.(.'+)+)+!+~+{+{+]+d.d.^+X.X.X.X.X.X.X.X.X.X.X.X.X.X./+(+(+_+:+:+<+[+K.K.}+(+>.>.1.2.2.H +.@.@.L B B |+",
"1+2+2+N O O ` #. . .^.3+3+4+5+6+6+7+8+9+9+0+a+a+b+c+c+c+c+c+c+c+c+c+c+c+c+c+b+d+e+e+4.f+f+g+h+i+i+j+/+k+k+1.2.2.H +.@.@.L M M a.",
"1+2+2+N O O ` #. . .^.3+3+4+5+6+6+7+8+9+9+0+a+a+b+c+c+c+c+c+c+c+c+c+c+c+c+c+b+d+e+e+4.f+f+g+h+i+i+j+/+k+k+1.2.2.H +.@.@.L M M a.",
"l+r r N O O ` #. . .^.3+3+8.m+n+n+o+p+q+q+r+s+s+t+u+v+v+w+w+w+w+w+w+w+w+w+w+x+y+z+z+A+B+B+C+D+E+E+F+G+H+H+1.2.2.H +.@.@.L M M a.",
"g r r N O O ` #. . .I I+I+J+K+L+L+M+N+^+^+O+P+P+Q+R+P.P.P.P.P.P.P.P.P.P.P.P.S+R+T+T+U+X.X.V+W+L+L+X+Y+H+H+1.2.2.H +.@.@.L M M C ",
"g r r N O O ` #. . .I I+I+J+K+L+L+M+N+^+^+O+P+P+Q+R+P.P.P.P.P.P.P.P.P.P.P.P.S+R+T+T+U+X.X.V+W+L+L+X+Y+H+H+1.2.2.H +.@.@.L M M C ",
"g r r N O O ` #. . .^.'+'+Z+`+ @ @.@+@Z+Z+9.@@@@#@$@%@%@%@%@%@%@%@%@%@%@%@%@$@&@*@*@=@-@-@;@>@,@,@@@d.k+k+1.2.2.H +.@.@.L M M C ",
"g r r N O O ` #. . .^.).)._.'@)@)@)@!@~@~@{@]@]@)@)@)@)@)@)@)@)@)@)@)@)@)@)@)@)@^@^@/@(@(@{@_@)@)@:@(.0.0.1.2.2.H +.@.@.L M M C ",
"g r r N O O ` #. . .^.).).4.q+<@<@[@}@|@|@|@1@1@[@1@1@1@1@1@1@1@1@1@1@1@1@1@1@1@1@1@|@|@|@|@1@[@[@2@4.0.0.1.2.2.H +.@.@.L M M C ",
"g r r N O O ` #. . .^.).).4.q+<@<@[@}@|@|@|@1@1@[@1@1@1@1@1@1@1@1@1@1@1@1@1@1@1@1@1@|@|@|@|@1@[@[@2@4.0.0.1.2.2.H +.@.@.L M M C ",
"g r r N O O ` #. . .^.'.'.3@4@5@5@6@7@8@8@8@8@8@8@8@8@8@8@8@8@8@8@8@8@8@8@8@8@8@8@8@8@8@8@8@8@9@9@0@a@b@b@1.2.2.H +.@.@.L M M C ",
"g r r N O O ` #. . .^.c@c@d@e@f@f@g@h@i@i@i@i@i@i@i@i@i@i@i@i@i@i@i@i@i@i@i@i@i@i@i@i@i@i@i@j@k@k@l@m@n@n@1.2.2.H +.@.@.L M M C ",
"g r r N O O ` #. . .^.c@c@d@e@f@f@g@h@i@i@i@i@i@i@i@i@i@i@i@i@i@i@i@i@i@i@i@i@i@i@i@i@i@i@i@j@k@k@l@m@n@n@1.2.2.H +.@.@.L M M C ",
"g r r N O O ` #. . .^.c@c@d@o@p@p@q@j@j@j@j@j@j@j@j@j@j@j@j@j@j@j@j@j@j@j@j@j@j@j@j@j@j@j@j@r@s@s@t@m@n@n@1.2.2.H +.@.@.L M M C ",
"u@r r N O O ` #. . .^.'.'.3@v@w@w@x@y@z@z@z@z@z@z@z@z@z@z@z@z@z@z@z@z@z@z@z@z@z@z@z@z@z@z@z@z@A@A@B@C@b@b@1.2.2.H +.@.@.L M M a.",
"l+r r N O O ` #. . .^.).).D@E@F@F@G@|@|@|@|@|@|@|@|@|@|@|@|@|@|@|@|@|@|@|@|@|@|@|@|@|@|@|@|@|@G@G@H@D@0.0.I@2.2.H +.@.@.L M M J@",
"l+r r N O O ` #. . .^.).).D@E@F@F@G@|@|@|@|@|@|@|@|@|@|@|@|@|@|@|@|@|@|@|@|@|@|@|@|@|@|@|@|@|@G@G@H@D@0.0.I@2.2.H +.@.@.L M M J@",
"K@r r N O O ` #. . .;.L@L@M@N@O@O@P@P@P@P@P@P@P@P@P@P@P@P@P@P@P@P@P@P@P@P@P@P@P@P@P@P@P@P@P@P@P@P@Q@M@R@R@S@{.{.].+.@.@.L M M a.",
"T@c.c.N O O ` Q R R U@V@V@W@X@X@X@X@X@X@X@X@X@X@X@X@X@X@X@X@X@X@X@X@X@X@X@X@X@X@X@X@X@X@X@X@X@X@X@X@Y@Z@Z@`@ # #H +.@.@.L M M .#",
"T@c.c.N O O ` Q R R U@V@V@W@X@X@X@X@X@X@X@X@X@X@X@X@X@X@X@X@X@X@X@X@X@X@X@X@X@X@X@X@X@X@X@X@X@X@X@X@Y@Z@Z@`@ # #H +.@.@.L M M .#",
"+#h h N O O ` @#####$#%#%#&#*#*#*#*#*#*#*#*#*#*#*#*#*#*#*#*#*#*#*#*#*#*#*#*#*#*#*#*#*#*#*#*#*#*#*#*#=#-#-#;#>#>#@#+.@.@.L M M C ",
",#c.c.N O O ` '#)#)#!#~#~#{#]#s s {#{#{#{#{#{#{#{#{#{#{#{#{#{#{#{#{#{#{#{#{#{#{#{#{#{#{#{#{#{#{#{#{#^#/#/#(#_#_#:#+.@.@.L M M .#",
"2 r r N O O ` '#<#<#[#}#}#|#1#2#2#3#3#3#3#3#3#3#3#3#3#3#3#3#3#3#3#3#3#3#3#3#3#3#3#3#3#3#3#3#3#4#4#5#6#7#7#8#9#9#:#+.@.@.L M M J@",
"2 r r N O O ` '#<#<#[#}#}#|#1#2#2#3#3#3#3#3#3#3#3#3#3#3#3#3#3#3#3#3#3#3#3#3#3#3#3#3#3#3#3#3#3#4#4#5#6#7#7#8#9#9#:#+.@.@.L M M J@",
"u@r r N O O ` '#)#)#0#a#a#b#c#d#d#e#f#f#f#f#f#f#f#f#f#f#f#f#f#f#f#f#f#f#f#f#f#f#f#f#f#f#f#f#g#h#h#i#j#k#k#l#P P :#+.@.@.L M M a.",
"g r r N O O ` '#)#)#0#[ [ m#n#o#o#p#q#q#q#q#q#q#q#q#q#q#q#q#q#q#q#q#q#q#q#q#q#q#q#q#q#q#q#q#r#s#s#t#u#k#k#l#P P :#+.@.@.L M M C ",
"g r r N O O ` '#)#)#0#[ [ v#w#x#x#y#z#z#z#z#z#z#z#z#z#z#z#z#z#z#z#z#z#z#z#z#z#z#z#z#z#z#z#z#A#B#B#C#5#k#k#l#P P :#+.@.@.L M M C ",
"g r r N O O ` '#)#)#0#[ [ v#w#x#x#y#z#z#z#z#z#z#z#z#z#z#z#z#z#z#z#z#z#z#z#z#z#z#z#z#z#z#z#z#A#B#B#C#5#k#k#l#P P :#+.@.@.L M M C ",
"g r r N O O V '#)#)#0#[ [ v#D#E#E#F#G#G#G#G#G#G#G#G#G#G#G#G#G#G#G#G#G#G#G#G#G#G#G#G#G#G#G#G#H#p#p#I#5#k#k#l#9#9#:#+.Z Z L M M C ",
"g J#J#N O O V '#K#K#L#[ [ v#D#E#E#F#M#M#M#M#M#M#M#M#M#M#M#M#M#M#M#M#M#M#M#M#M#M#M#M#M#M#M#M#H#p#p#I#5#k#k#l#N#N#:#O#P#P#L M M C ",
"g J#J#N O O V '#K#K#L#[ [ v#D#E#E#F#M#M#M#M#M#M#M#M#M#M#M#M#M#M#M#M#M#M#M#M#M#M#M#M#M#M#M#M#H#p#p#I#5#k#k#l#N#N#:#O#P#P#L M M C ",
"g J#J#N Q#Q#R#S#<#<#T#[ [ v#D#U#U#V#M#M#M#M#M#M#M#M#M#M#M#M#M#M#M#M#M#M#M#M#M#M#M#M#M#M#M#M#W#p#p#I#5#k#k#X#_#_#Y#T Z#Z#`#M M C ",
"g h h  $.$.$+$@$#$#$$$%$%$&$*$=$=$-$;$;$;$;$;$;$;$;$;$;$;$;$;$;$;$;$;$;$;$;$;$;$;$;$;$;$;$;$>$,$,$'$)$[ [ !$~$~$@${$]$]$^$A.A.q ",
"/$($($_$:$:$<$[$}$}$|$1$1$2$3$4$4$5$6$6$6$6$6$6$6$6$6$6$6$6$6$6$6$6$6$6$6$6$6$6$6$6$6$6$6$6$7$8$8$9$0$h h a$b$b$[$c$d$d$e$| | f$",
"/$($($_$:$:$<$[$}$}$|$1$1$2$3$4$4$5$6$6$6$6$6$6$6$6$6$6$6$6$6$6$6$6$6$6$6$6$6$6$6$6$6$6$6$6$7$8$8$9$0$h h a$b$b$[$c$d$d$e$| | f$",
"g$h$h$| h h  $N i$i$5 j$j$k$l$m$m$n$o$o$o$n$n$n$n$n$n$n$n$n$n$n$n$n$n$n$n$n$n$n$n$n$n$n$n$o$n$p$p$q$r$! ! c.[ [ W.s$5 5 t$u$u$v$",
"  w$w$x$y$y$z$r A$A$1#B$B$C$D$E$E$= F$F$F$= E$E$G$G$G$G$G$G$G$G$G$G$G$G$G$G$G$G$H$H$E$F$F$F$H$E$E$G$I$J$J$K$z$z$r A$_ _ L$M$M$N$",
"  w$w$x$y$y$z$r A$A$1#B$B$C$D$E$E$= F$F$F$= E$E$G$G$G$G$G$G$G$G$G$G$G$G$G$G$G$G$H$H$E$F$F$F$H$E$E$G$I$J$J$K$z$z$r A$_ _ L$M$M$N$",
"H$    ] O$O$P$3.P$P$g Q$Q$R$v$S$S$T$U$V$V$W$S$S$    H$H$X$Y$Y$Y$Y$Y$Y$Z$Y$Y$    `$`$ %.%.%V$+% % %@%  ] ] C$P$P$3.P$#%#%$%- -   "};
