/* XPM */
static char * player_xpm[] = {
"64 64 256 2",
"  	c #EEEEEE",
". 	c #40B080",
"+ 	c #18A068",
"@ 	c #FFFFFF",
"# 	c #EEEEEE",
"$ 	c #187654",
"% 	c #1A1A1A",
"& 	c #EEEEEE",
"* 	c #EEEEEE",
"= 	c #70C0A0",
"- 	c #FFC594",
"; 	c #73CE73",
"> 	c #E75651",
", 	c #30443C",
"' 	c #5B977F",
") 	c #456D5D",
"! 	c #4F4F4F",
"~ 	c #B9B9B9",
"{ 	c #848484",
"] 	c #A0D0C0",
"^ 	c #499154",
"/ 	c #485880",
"( 	c #189D67",
"_ 	c #187955",
": 	c #188B5E",
"< 	c #188159",
"[ 	c #189061",
"} 	c #2C936A",
"| 	c #187E58",
"1 	c #2E8967",
"2 	c #3EAC7D",
"3 	c #187B57",
"4 	c #1B7A57",
"5 	c #449B7A",
"6 	c #1E7B59",
"7 	c #189663",
"8 	c #C04040",
"9 	c #6BBB9B",
"0 	c #189864",
"a 	c #18865C",
"b 	c #5AAE8D",
"c 	c #18885D",
"d 	c #6ABE9D",
"e 	c #64BC98",
"f 	c #65B797",
"g 	c #5AB892",
"h 	c #44B084",
"i 	c #1F815C",
"j 	c #6DBF9E",
"k 	c #DE9473",
"l 	c #22855F",
"m 	c #182850",
"n 	c #39AC7D",
"o 	c #4CB488",
"p 	c #1D7D5A",
"q 	c #18835A",
"r 	c #2EA976",
"s 	c #43B182",
"t 	c #348D6B",
"u 	c #278C65",
"v 	c #39A578",
"w 	c #258862",
"x 	c #36A275",
"y 	c #61BB96",
"z 	c #188E5F",
"A 	c #237F5E",
"B 	c #298462",
"C 	c #4AA07F",
"D 	c #28A673",
"E 	c #189362",
"F 	c #189B66",
"G 	c #58B890",
"H 	c #49B387",
"I 	c #23A46F",
"J 	c #67BD9A",
"K 	c #4FB58A",
"L 	c #349E72",
"M 	c #7BC4A7",
"N 	c #2A8F67",
"O 	c #2F976D",
"P 	c #319A70",
"Q 	c #74C2A3",
"R 	c #46B284",
"S 	c #55B68F",
"T 	c #55A988",
"U 	c #60B292",
"V 	c #3F9675",
"W 	c #3FAE81",
"X 	c #1E2422",
"Y 	c #5BB992",
"Z 	c #399271",
"` 	c #4FA484",
" .	c #5EBA94",
"..	c #52B68C",
"+.	c #1B201E",
"@.	c #1EA26C",
"#.	c #55B78E",
"$.	c #89C9B1",
"%.	c #34AA7A",
"&.	c #81C6AB",
"*.	c #9CCFBE",
"=.	c #96DA96",
"-.	c #C6C6C6",
";.	c #1BA16A",
">.	c #50826E",
",.	c #3A584C",
"'.	c #D4D4D4",
").	c #282828",
"!.	c #97CDBA",
"~.	c #3CA97B",
"{.	c #FCBE8F",
"].	c #FFCA9D",
"^.	c #93CCB7",
"/.	c #242B2B",
"(.	c #535353",
"_.	c #8D8D8D",
":.	c #373737",
"<.	c #F1F1F1",
"[.	c #FFDBBC",
"}.	c #FFD0A8",
"|.	c #FFF1E4",
"1.	c #293A33",
"2.	c #C44745",
"3.	c #E2E2E2",
"4.	c #96CC7B",
"5.	c #282522",
"6.	c #186D4C",
"7.	c #5DB064",
"8.	c #FFF4EB",
"9.	c #FFFBF8",
"0.	c #19332A",
"a.	c #F1BA8C",
"b.	c #186247",
"c.	c #2D654D",
"d.	c #D4A57D",
"e.	c #AAAAAA",
"f.	c #372A26",
"g.	c #FFEDDE",
"h.	c #4F9557",
"i.	c #FFD7B4",
"j.	c #FFE9D7",
"k.	c #60A187",
"l.	c #65AB8F",
"m.	c #558C76",
"n.	c #194736",
"o.	c #194D38",
"p.	c #534539",
"q.	c #CA524B",
"r.	c #DC514D",
"s.	c #707070",
"t.	c #2E4D3F",
"u.	c #453A31",
"v.	c #B08B69",
"w.	c #1A543E",
"x.	c #CE4745",
"y.	c #626262",
"z.	c #444444",
"A.	c #1A2B24",
"B.	c #705A48",
"C.	c #E6AD83",
"D.	c #C59A75",
"E.	c #7C3735",
"F.	c #EE7262",
"G.	c #F9B289",
"H.	c #715874",
"I.	c #6BB698",
"J.	c #23372B",
"K.	c #DEF4DE",
"L.	c #271E1D",
"M.	c #EA5E56",
"N.	c #25355B",
"O.	c #3F6455",
"P.	c #4A7765",
"Q.	c #9C9C9C",
"R.	c #327B5C",
"S.	c #31394D",
"T.	c #417D4A",
"U.	c #404E70",
"V.	c #66312F",
"W.	c #44A07D",
"X.	c #C3595B",
"Y.	c #2EA374",
"Z.	c #399773",
"`.	c #B04645",
" +	c #29996C",
".+	c #36405A",
"++	c #F1B086",
"@+	c #34A676",
"#+	c #2A976B",
"$+	c #7E7E7E",
"%+	c #8D7057",
"&+	c #193D30",
"*+	c #262A34",
"=+	c #2C4930",
"-+	c #195B41",
";+	c #D64F4D",
">+	c #524F61",
",+	c #E58F72",
"'+	c #7D654F",
")+	c #F5AB83",
"!+	c #239A6A",
"~+	c #DA7160",
"{+	c #EBA17D",
"]+	c #953E43",
"^+	c #48557B",
"/+	c #7D9962",
"(+	c #FFDEC3",
"_+	c #B9CA84",
":+	c #85C7AE",
"<+	c #9B7A5F",
"[+	c #512A29",
"}+	c #F8B98C",
"|+	c #975769",
"1+	c #65646F",
"2+	c #77AD7F",
"3+	c #549D5D",
"4+	c #3E4865",
"5+	c #E2524E",
"6+	c #E6A07B",
"7+	c #B7B7B7",
"8+	c #703447",
"9+	c #6AC26C",
"0+	c #DCC78C",
"a+	c #F69578",
"b+	c #A1A872",
"c+	c #919191",
"d+	c #BBE5BC",
"e+	c #DE5652",
"f+	c #A7CCAC",
"g+	c #3D7346",
"h+	c #E8826A",
"i+	c #A69367",
"j+	c #A15766",
"k+	c #7CCF78",
"l+	c #C1B47E",
"m+	c #F5C491",
"n+	c #624F40",
"o+	c #84576E",
"p+	c #36623D",
"q+	c #D49371",
"r+	c #66925B",
"s+	c #306E54",
"t+	c #2C3343",
"u+	c #85D485",
"v+	c #D3F0D3",
"w+	c #8DBA94",
"x+	c #78925E",
"y+	c #6E465E",
"z+	c #8A9262",
"A+	c #DDBB88",
"B+	c #75B66C",
"C+	c #CBC888",
"D+	c #6B9B60",
"E+	c #CD8268",
"F+	c #1C8059",
"G+	c #784256",
"= = = = = = = = = = = = = = = = K . s = = = = = = = = = = = = = = = = = = = = = = = = = = = = = = = = = = = = = = = = K . s = = ",
"= = = = = = = = = = = = = = = = . . . = = = = = = = = = = = = = = = = = = = = = = = = = = = = = = = = = = = = = = = = . . . = = ",
"= = = = = = = = = = = = = = = = = e = = = = = = = = = = = = = = = = = = = = = = = = = = = = = = = = = = = = = = = = = = e = = = ",
"= = = = = = = = = = = = = = = = = = Y #.= = = = = = = = = = = = = = = = = = = = = = = = = = = = = = = = = = = = = = = = = Y #.= ",
"= = = = = = = = = = = = = = = = = e . . R = = = = = = = = = = = = = = = = = = = = = = = = = = = = = = = = = = = = = = = e . . R ",
"= = = = = = = = = = = = = = = = = = s . = = = = = = = = = = = = = = = = = = = = = = = = = = = = = = = = = = = = = = = = = s . = ",
"= = = = = = = = = = = = = = = = = = = = = = = = = = = = = = = = = = = = &.] ^.= = = = = = = = = = = = = = = = = = = = = = = = = ",
"= = = = . . R = = = = = = = = = = = = = = = = = = = = = = = = = = = = = *.] ] ^.= = = = = = = . . R = = = = = = = = = = = = = = ",
"= = = = . . #.= = = = = = = = = = = = = = = = = = = = = = = = = = = = = = Q M = = = = = = = = . . #.= = = = = = = = = = = = = = ",
"= = = = = = = = = = = = = = = = = = = = = = = = = = = = = = = = = = = = = = = = = = = = = = = = = = = = = = = = = = = = = = = = ",
"= = = = = = = = = = = = = = = = = = = = = = = = = = = = = = = = = = = = = = = = = = = = = = = = = = = = = = = = = = = = = = = = ",
"= = . .  .= = = = = = = = = = = = = = = = = = = = = = = = = = = = = % % % = = = = = = = = . .  .= = = = = = = = = = = = = = = = ",
"= . . . d = = = = = = = = = = = = = = = = = = = = = = = = = = #.K ' % @ % % % ) = = = = . . . d = = = = = = = = = = = = = = = = ",
"= = = = = = = = = = = = = = = = = = = = = = = = = = = = % % % % % % % @ @ % % % = = = = = = = = = = = = = = = = = = = = = = = = ",
"= = = = = = = = = = = = = J G = = = = = = = = = = = % % % _.@ @ @ @ _.@ @ s.@ % 1.= = = = = = = = = = = = = = = J G = = = = = = ",
"= = = = = = = = = = = = = . . . = = = = = = = = = % % <.@ @ @ @ @ @ @ @ @ @ @ % % = = = = = = = = = = = = = = = . . . = = = = = ",
"= = = = = = = = = = = = = s . j = = = = = = = = X % @ @ @ @ @ @ @ @ @ @ @ @ @ % /.= = = = = = = = = = = = = = = s . j = = = = = ",
"= = = = = = = = = = = = = = = = = = = = = = = , % -.@ @ @ @ @ @ @ @ @ @ @ @ @ % k.= = = = = = = = = = = = = = = = = = = = = = = ",
"= = = = = = = = = M ] ] Q = = = = = = = = = = % t.^ ^ ; ; ; ; ; ; ; ; ; ; ^ ^ % % = = = = = = = = = = = M ] ] Q = = = = = = = = ",
"= = = = = = = = = !.] ] &.= = = = = = = = = ,.% ^ ^ ^ ; ; ; ; ; ; ; ; ; ; ^ ^ ^ % I.= = = = = = = = = = !.] ] &.= = = = = = = = ",
"= = = = = = = = = = = = = = = = = = = = = = % % ^ ^ ^ ; ; ; ; ; ; ; ; ; ; ^ ^ ^ % % = = = = = = = = = = = = = = = = = = = = = = ",
"= = = = = = = = = = = = = = = = = = = = = X % - k z+^ ; ; ; ; ; ; ; ; ; 7.^ i+k - % m.= = = = = = = = = = = = = = = = = = = = = ",
"= = = = = = = = = = = = = = = = = = = = = % p.- k k - j.|.- - - - - - |.(+- k k - % , = = = = = = = = = = = = = = = = = = = = = ",
"= = s . . H = = = = = = = = = = = = = = = % % - - - @ @ ).'.- - - - s.z.@ @ - - - % ) = = s . . H = = = = = = = = = = = = = = = ",
"= = j . . = = = = = = = = = = = = = = = = = % % - - @ % % % ].- - |.% % e.@ - - % % = = = j . . = = = = = = = = = = = = = = = = ",
"= = = = = = = = = = = = = = = = = = = = = = l.% a.- @ 7+% % - - - (+% % @ @ - B.% = = = = = = = = = = = = = = = = = = = = = = = ",
"= = = = = = = = = = = = = = = = = = = = = = = % % - [.@ @ g.- - - - @ @ @ ].- % ,.= = = = = = = = = = = = = = = = = = = = = = = ",
"= = ] ] = = = = = = = = = = = = = = = = = = = P.% ]+- - - - - - - - - - - - L.% = = = = = ] ] = = = = = = = = = = = = = = = = = ",
"= ] ] ] = = = = = = = = = = = = = = = = = = = % [+> r.q.- - - - - - - G.8 > > % % ..= = ] ] ] = = = = = = = = = = = = = = = = = ",
"= :+$.= = = = = = = = = = = = = = = = = = = t.% > > > ;+8 8 m m m m 8 8 > > > > % ~.Y = :+$.= = = = = = = = = = = = = = = = = = ",
"= = = = = = = = = = = = = = = = = = = = = = % % {.> > > > 5+N.m m N.> > > > > - % c.= = = = = = = = = = = = = = = = = = = = = = ",
"= = = = = = = = = = = = = = = = = = = = = = O.% a.- > > > > / / / / > > > > - %+% = = = = = = = = = = = = = = = = = = = = = = = ",
"= = = = = = = = = = = = = = = = = = = = = = = % % p.> > > > / / / / > > > > f.% % = = = = = = = = = = = = = = = = = = = = = = = ",
"= = = = = = = = = = = = = = = = = = = = = = = = /.% o+> > > / / / / > > > 4+% ,.= = = = = = = = = = = = = = = = = = = = = = = = ",
"= = = = = = = = = = = = = = = = = = = = = = = = = % / / / / / / / / / / / .+% = = = = = = = = = = = = = = = = = = = = = = = = = ",
"= = = = = = = = = = = = = = = = = = = = = = = = = % S./ / / / % % / / / / % % = = = = = = = = = = = = = = = = = = = = = = = = = ",
"= = = = = = = = = = = = = = = = = = = = = = = = . J.% S./ ^+% % % +./ / X % Z s = = = = = = = = = = = = = = = = = = = = = = = = ",
"= = = = = = = ... . H = = = = = = = = = = = = = . . J.% % % % . ~.% % % % s+. . = = = = = = = = = = ... . H = = = = = = = = = = ",
"= = = = = = = = s . o = = = = = = = = = = = = = #.. . . . . . . . . . . . . . j = = = = = = = = = = = s . o = = = = = = = = = = ",
"= = = = = = = = = = = = = = = = = = = = = = = = = = ... . . . . . . . . . Y = = = = = = = = = = = = = = = = = = = = = = = = = = ",
"= = = = = = = = = = = = = = = = = = = = = = ] ] ] = = = = = = = = = = = = = = = = = = = = = = = = = = = = = = = = = = = = = = = ",
"= = = = = = = = = = = = = = = = = = = = = = !.] ] = = = = = = = = = = = = = = = = = = = = = = = = = = = = = = = = = = = = = = = ",
"= = = = = = = = = = = = = = = = = = = = = = = = = = = = = = = = = = = = = = = = = = = = = = = = = = = = = = = = = = = = = = = = ",
"= = = = = = = = = = = = = = = = K . s = = = = = = = = = = = = = = = = = = = = = = = = = = = = = = = = = = = = = = = = K . s = = ",
"= = = = = = = = = = = = = = = = . . . = = = = = = = = = = = = = = = = = = = = = = = = = = = = = = = = = = = = = = = = . . . = = ",
"= = = = = = = = = = = = = = = = = e = = = = = = = = = = = = = = = = = = = = = = = = = = = = = = = = = = = = = = = = = = e = = = ",
"= = = = = = = = = = = = = = = = = = Y #.= = = = = = = = = = = = = = = = = = = = = = = = = = = = = = = = = = = = = = = = = Y #.= ",
"= = = = = = = = = = = = = = = = = e . . R = = = = = = = = = = = = = = = = = = = = = = = = = = = = = = = = = = = = = = = e . . R ",
"= = = = = = = = = = = = = = = = = = s . = = = = = = = = = = = = = = = = = = = = = = = = = = = = = = = = = = = = = = = = = s . = ",
"= = = = = = = = = = = = = = = = = = = = = = = = = = = = = = = = = = = = &.] ^.= = = = = = = = = = = = = = = = = = = = = = = = = ",
"= = = = . . R = = = = = = = = = = = = = = = = = = = = = = = = = = = = = *.] ] ^.= = = = = = = . . R = = = = = = = = = = = = = = ",
"= = = = . . #.= = = = = = = = = = = = = = = = = = = = = = = = = = = = = = Q M = = = = = = = = . . #.= = = = = = = = = = = = = = ",
"= = = = = = = = = = = = = = = = = = = = = = = = = = = = = = = = = = = = = = = = = = = = = = = = = = = = = = = = = = = = = = = = ",
"= = = = = = = = = = = = = = = = = = = = = = = = = = = = = = = = = = = = = = = = = = = = = = = = = = = = = = = = = = = = = = = = ",
"= = . .  .= = = = = = = = = = = = = = = = = = = = = = = = = = = = = = = = = = = = = = = = . .  .= = = = = = = = = = = = = = = = ",
"= . . . d = = = = = = = = = = = = = = = = = = = = = = = = = = #.K = = = = = = = = = = = . . . d = = = = = = = = = = = = = = = = ",
"= = = = = = = = = = = = = = = = = = = = = = = = = = = = = = o . . . = = = = = = = = = = = = = = = = = = = = = = = = = = = = = = ",
"= = = = = = = = = = = = = J G = = = = = = = = = = = = = = = = . . j = = = = = = = = = = = = = = = = = = = = = = J G = = = = = = ",
"= = = = = = = = = = = = = . . . = = = = = = = = = = = = . . = = = = = = = = = = = = = = = = = = = = = = = = = = . . . = = = = = ",
"= = = = = = = = = = = = = s . j = = = = = = = = = = = y . . o = = = = = = = = = = = = = = = = = = = = = = = = = s . j = = = = = ",
"= = = = = = = = = = = = = = = = = = = = = = = = = = = = d e = = = = = = = = = = = = = = = = = = = = = = = = = = = = = = = = = = ",
"= = = = = = = = = M ] ] Q = = = = = = = = = = = = = = = = = = = = = = = = = = = = = = = = = = = = = = = M ] ] Q = = = = = = = = ",
"= = = = = = = = = !.] ] &.= = = = = = = = = = = = = = = = = = = = = = = = = = = = = = = = = = = = = = = !.] ] &.= = = = = = = = ",
"= = = = = = = = = = = = = = = = = = = = = = = = = = = = = = = = = = = = = = = = = = = = = = = = = = = = = = = = = = = = = = = = "};
