/* XPM */
static char * player_xpm[] = {
"64 64 9 1",
" 	c #E6DE9C",
".	c #F6F6CD",
"+	c #EEEEAC",
"@	c #C5B48B",
"#	c #D5CD9C",
"$	c #FFFFFF",
"%	c #7B7B7B",
"&	c #FF8373",
"*	c #CD5241",
"                                                                ",
"................................................................",
".      ..      ..      ..      ..      ..      ..      ..      .",
". ++++ .. ++++ .. ++++ .. ++++ .. ++++ .. ++++ .. ++++ .. ++++ .",
". ++++ .. ++++ .. ++++ .. ++++ .. ++++ .. ++++ .. ++++ .. ++++ .",
". ++++ .. ++++ .. ++++ .. ++++ .. ++++ .. ++++ .. ++++ .. ++++ .",
". ++++ .. ++++ .. ++++ .. ++++ .. ++++ .. ++++ .. ++++ .. ++++ .",
".      ..      ..      ..      ..      ..      ..      ..      .",
"................................................................",
"................................................................",
".      ..      ..      ..   @@@  @@@   ..      ..      ..      .",
". ++++ .. ++++ .. ++++ ..@####@  @####@.. ++++ .. ++++ .. ++++ .",
". ++++ .. ++++ .. ++++@  @####@  @####@  @++++ .. ++++ .. ++++ .",
". ++++ .. ++++ .. +++#@  @####@  @####@  @#+++ .. ++++ .. ++++ .",
". ++++ .. ++++ .. +###@  @####@  @####@  @###+ .. ++++ .. ++++ .",
".      ..      .. @@@@@  @@@@@@  @@@@@@  @@@@@ ..      ..      .",
".................                              .................",
"................                                ................",
".      ..        @@@@@@  @@@@@@  @@@@@@  @@@@@@        ..      .",
". ++++ .. ++++@  @####@  @####@  @####@  @####@  @++++ .. ++++ .",
". ++++ .. +++#@  @####@  @####@  @####@  @####@  @#+++ .. ++++ .",
". ++++ .. +++#@  @####@  @####@  @####@  @####@  @#+++ .. ++++ .",
". ++++ .. ++##@  @####@  @####@  @####@  @####@  @##++ .. ++++ .",
".      ..  @@@@  @@@@@@  @@@@@@  @@@@@@  @@@@@@  @@@@  ..      .",
"...........                                          ...........",
"...........                  ......                  ...........",
".      .. @@@@@  @@@@@@  @@    ..    @@  @@@@@@  @@@@@ ..      .",
". ++++ .. ####@  @####@  @++++ .. ++++@  @####@  @#### .. ++++ .",
". ++++ .. ####@  @####@   ++++ .. ++++   @####@  @#### .. ++++ .",
". ++++ ..@####@  @####@   ++++ .. ++++   @####@  @####@.. ++++ .",
". ++++ ..@####@  @####@ . ++++ .. ++++ . @####@  @####@.. ++++ .",
".      ..      ..      ..      ..      ..      ..      ..      .",
"................................................................",
"................................................................",
".      ..      ..      ..      ..      ..      ..      ..      .",
". ++++ ...$$$$.$$.$$$$.$. ++++ .. ++++ .$.$$$$.$$.$$$$... ++++ .",
". ++++ ...$$$$.$$.$$$$.$$ ++++ .. ++++ $$.$$$$.$$.$$$$... ++++ .",
". ++++ .. $$$$.$$.$$$$.$$ ++++ .. ++++ $$.$$$$.$$.$$$$ .. ++++ .",
". ++++ .. $$$$.$$.$$$$.$$.++++ .. ++++.$$.$$$$.$$.$$$$ .. ++++ .",
".      .. .....$$......$$..    ..    ..$$......$$..... ..      .",
"...........$$$$$$$$$$$$$$$$$$......$$$$$$$$$$$$$$$$$$...........",
"...........$$$$$$$$$$$$$$$$$$$$$$$$$$$$$$$$$$$$$$$$$$...........",
".      ..  ....$$......$$......$$......$$......$$....  ..      .",
". ++++ .. ++$$.$$.$$$$.$$.$$$$.$$.$$$$.$$.$$$$.$$.$$++ .. ++++ .",
". ++++ .. +++$.$$.$$$$.$$.$$$$.$$.$$$$.$$.$$$$.$$.$+++ .. ++++ .",
". ++++ .. +++$.$$.$$$$.$$.$$$$.$$.$$$$.$$.$$$$.$$.$+++ .. ++++ .",
". ++++ .. ++++.$$.$$$$.$$.$$$$.$$.$$$$.$$.$$$$.$$.++++ .. ++++ .",
".      ..      $$......$$......$$......$$......$$      ..      .",
"................$$$$$$$$$$$$$$$$$$$$$$$$$$$$$$$$................",
".................$$$$$$$$$$$$$$$$$$$$$$$$$$$$$$.................",
".      ..      .. .....$$......$$......$$..... ..      ..      .",
". ++++ .. ++++ .. +$$$.$$.$$$$.$$.$$$$.$$.$$$+ .. ++++ .. ++++ .",
". ++++ .. ++++ .. +++$.$$.$$$$.$$.$$$$.$$.$+++ .. ++++ .. ++++ .",
". ++++ .. ++++ .. ++++.$$.$$$$.$$.$$$$.$$.++++ .. ++++ .. ++++ .",
". ++++ .. ++++ .. ++++ ...$$$$.$$.$$$$... ++++ .. ++++ .. ++++ .",
".      ..      ..      ..   ...$$...   ..      ..      ..      .",
"................................................................",
"................................................................",
".      ..      ..      ..      ..      ..      ..      ..      .",
". ++++ .. ++++ .. ++++ .. ++++ .. ++++ .. ++++ .. ++++ .. ++++ .",
". ++++ .. ++++ .. ++++ .. ++++ .. ++++ .. ++++ .. ++++ .. ++++ .",
". ++++ .. ++++ .. +%%%%%%%%%%%%%%%%%%%%%%%%%%+ .. ++++ .. ++++ .",
". ++++ .. ++++ .. +%&&&&&&&&&&&&&&&&&&&&&&&&%+ .. ++++ .. ++++ .",
".      ..      ..  %&**********************&%  ..      ..      ."};
